<svg xmlns="http://www.w3.org/2000/svg" viewBox="0 0 170 170" width="170" height="170">
  <path fill="#fff" d="M150.37 130.25c-2.45 5.66-5.35 10.87-8.71 15.66-4.58 6.53-8.33 11.05-11.22 13.56-4.48 4.12-9.28 6.23-14.42 6.35-3.69 0-8.14-1.05-13.32-3.18-5.19-2.12-9.97-3.17-14.34-3.17-4.58 0-9.49 1.05-14.74 3.17-5.26 2.13-9.5 3.24-12.74 3.35-4.92.21-9.84-1.96-14.74-6.53-3.13-2.73-7.1-7.43-11.92-14.1-8.13-11.2-14.22-23.4-18.28-36.63-4.06-13.24-6.1-25.56-6.1-36.96 0-12.3 2.76-22.95 8.27-31.94 5.51-8.99 12.6-15.65 21.26-19.98 8.67-4.33 17.58-6.38 26.74-6.14 6.13.19 13.06 2.05 20.79 5.58 7.73 3.53 12.63 5.3 14.71 5.3 1.63 0 6.64-1.8 15.02-5.41 8.39-3.6 15.42-5.23 21.09-4.88 12.66.42 23.36 4.38 32.1 11.89-6.34 3.8-9.84 9.17-10.5 16.12-.66 6.95 1.5 13.17 6.47 18.67 4.98 5.5 11.21 8.78 18.7 9.85-2.02 9.18-5.37 17.65-10.05 25.42zM108.62 3.17c-.38 7.82-3.32 14.72-8.83 20.69-5.5 5.96-12.44 9.24-20.81 9.84-.45-7.7 2.45-14.53 8.71-20.48C93.94 7.27 100.86 3.83 108.62 3.17z"/>
</svg>
